<?xml version="1.0" encoding="utf-8"?>
<!-- Generator: Adobe Illustrator 16.0.0, SVG Export Plug-In . SVG Version: 6.00 Build 0)  -->
<!DOCTYPE svg PUBLIC "-//W3C//DTD SVG 1.1//EN" "http://www.w3.org/Graphics/SVG/1.1/DTD/svg11.dtd">
<svg version="1.1" xmlns="http://www.w3.org/2000/svg" xmlns:xlink="http://www.w3.org/1999/xlink" x="0px" y="0px" width="560px"
	 height="560px" viewBox="0 0 560 560" enable-background="new 0 0 560 560" xml:space="preserve">
<g id="_x32_D_NoRamp">
</g>
<g id="_x32_D_No_Ramp">
	<g>
		<path fill="none" d="M17.008,448.119c0-154.581,0-309.162,0-463.84c154.807,0,309.652,0,464.65,0c0,154.551,0,309.195,0,463.84
			C326.864,448.119,171.957,448.119,17.008,448.119z M232.481,309.139c0,15.85,0.021,31.698-0.008,47.548
			c-0.024,13.585-0.138,27.169-0.151,40.752c-0.008,7.654,1.379,9.011,8.86,9.016c5.132,0.001,10.264,0,15.397,0
			c8.931,0,9.923-0.938,9.907-9.779c-0.04-22.642-0.153-45.282-0.173-67.923c-0.028-35.773,0-71.548-0.006-107.322
			c-0.002-7.602-1.282-8.854-8.972-8.867c-5.132-0.006-10.264,0-15.396,0.007c-8.561,0.013-9.458,0.907-9.46,9.622
			C232.471,251.174,232.478,280.156,232.481,309.139z M280.45,139.295c0-15.395,0.092-30.79-0.028-46.184
			c-0.093-11.754-6.551-20.312-17.587-21.574c-8.787-1.004-17.837-0.896-26.657-0.076c-9.689,0.9-16.009,7.586-17.235,17.407
			c-0.799,6.394-0.593,12.929-0.609,19.402c-0.057,25.509-0.099,51.019,0.008,76.526c0.062,14.83,8.196,22.773,23.015,22.859
			c4.983,0.027,9.963,0.019,14.944,0.02c1.357,0,2.725,0.064,4.073-0.059c12.763-1.167,19.927-8.959,20.037-22.139
			C280.539,170.085,280.44,154.689,280.45,139.295z M212.903,121.935c-7.011,0-14.055-0.116-21.091,0.076
			c-1.916,0.053-4.629,0.497-5.458,1.759c-0.718,1.096,0.219,3.949,1.268,5.425c6.093,8.566,12.369,17.007,18.774,25.342
			c0.812,1.054,2.952,1.964,4.091,1.629c1.07-0.314,2.285-2.353,2.312-3.654C212.989,142.601,212.903,132.684,212.903,121.935z
			 M286.066,121.944c0,11.015-0.154,21.356,0.096,31.688c0.072,3.028,3.629,4.158,5.47,1.736
			c7.078-9.309,13.978-18.76,20.702-28.328c1.885-2.684,0.487-4.982-2.864-5.049C301.661,121.84,293.847,121.944,286.066,121.944z
			 M212.727,81.152c-7.856,0-15.939-0.125-24.014,0.066c-2.918,0.068-4.168,2.152-2.418,4.617
			c6.851,9.652,13.872,19.186,20.99,28.643c0.578,0.769,2.479,1.057,3.553,0.77c0.806-0.217,1.798-1.704,1.808-2.637
			C212.773,102.295,212.727,91.979,212.727,81.152z M285.99,81.158c0,10.812-0.057,20.867,0.078,30.921
			c0.014,1.113,0.939,2.948,1.753,3.144c1.19,0.283,3.243-0.178,3.923-1.079c7.044-9.334,13.963-18.766,20.73-28.302
			c1.723-2.426,0.663-4.555-2.353-4.621C302.031,81.039,293.934,81.158,285.99,81.158z M285.277,177.838
			c-0.093,0.006-0.187,0.012-0.278,0.019c0.339,5.411,0.554,10.837,1.109,16.226c0.131,1.255,1.207,3.049,2.243,3.389
			c0.994,0.324,2.975-0.561,3.707-1.529c6.804-9.004,13.544-18.061,20.047-27.283c2.233-3.167,0.848-5.604-2.984-5.645
			c-6.939-0.073-13.881,0.18-20.824,0.205c-2.34,0.01-3.155,0.979-3.061,3.301C285.39,170.286,285.277,174.064,285.277,177.838z
			 M212.711,163.047c-7.723,0-15.676-0.15-23.617,0.082c-2.848,0.084-4.814,1.889-2.717,4.846
			c6.775,9.549,13.636,19.043,20.724,28.359c1.946,2.559,5.421,1.564,5.505-1.526C212.884,184.476,212.711,174.131,212.711,163.047z
			"/>
		<path fill-rule="evenodd" clip-rule="evenodd" fill="#CCCCCC" d="M232.479,309.139c-0.002-28.982-0.009-57.965,0.002-86.947
			c0.002-8.715,0.899-9.609,9.46-9.622c5.132-0.007,10.264-0.013,15.396-0.007c7.689,0.013,8.97,1.266,8.972,8.867
			c0.006,35.774-0.022,71.549,0.006,107.322c0.02,22.641,0.133,45.281,0.173,67.923c0.016,8.841-0.977,9.779-9.907,9.779
			c-5.134,0-10.266,0.001-15.397,0c-7.481-0.005-8.868-1.361-8.86-9.016c0.014-13.583,0.127-27.167,0.151-40.752
			C232.503,340.837,232.481,324.988,232.479,309.139z"/>
		<path fill-rule="evenodd" clip-rule="evenodd" fill="#CCCCCC" d="M280.445,139.295c-0.005,15.395,0.094,30.79-0.035,46.184
			c-0.11,13.18-7.274,20.972-20.037,22.139c-1.349,0.123-2.716,0.059-4.073,0.059c-4.981-0.001-9.961,0.008-14.944-0.02
			c-14.818-0.086-22.952-8.029-23.015-22.859c-0.106-25.508-0.064-51.018-0.008-76.526c0.017-6.474-0.189-13.009,0.609-19.402
			c1.227-9.821,7.546-16.507,17.235-17.407c8.82-0.82,17.87-0.928,26.657,0.076c11.036,1.262,17.494,9.82,17.587,21.574
			C280.542,108.505,280.45,123.9,280.445,139.295z M249.307,199.842c10.882,0.012,19.541-8.482,19.564-19.194
			c0.025-10.845-8.877-19.816-19.611-19.769c-10.528,0.047-19.366,8.98-19.353,19.562
			C229.924,191.244,238.51,199.83,249.307,199.842z M249.524,79.249c-10.927-0.005-19.629,8.548-19.608,19.269
			c0.022,10.543,8.936,19.248,19.779,19.316c10.174,0.064,19.207-9.125,19.149-19.479C268.787,87.797,260.146,79.253,249.524,79.249
			z M249.204,158.16c10.674,0.018,18.712-7.537,18.774-17.641c0.065-11.186-7.7-19.418-18.403-19.51
			c-10.548-0.09-18.646,7.973-18.758,18.68C230.705,150.236,238.574,158.143,249.204,158.16z"/>
		<path fill-rule="evenodd" clip-rule="evenodd" fill="#CCCCCC" d="M212.903,121.935c0,10.749,0.086,20.666-0.104,30.576
			c-0.026,1.302-1.241,3.34-2.312,3.654c-1.139,0.335-3.279-0.575-4.091-1.629c-6.405-8.335-12.682-16.775-18.774-25.342
			c-1.049-1.476-1.985-4.329-1.268-5.425c0.829-1.262,3.542-1.706,5.458-1.759C198.849,121.818,205.893,121.935,212.903,121.935z"/>
		<path fill-rule="evenodd" clip-rule="evenodd" fill="#CCCCCC" d="M286.066,121.944c7.78,0,15.595-0.104,23.403,0.048
			c3.352,0.066,4.749,2.365,2.864,5.049c-6.725,9.568-13.624,19.02-20.702,28.328c-1.841,2.422-5.397,1.292-5.47-1.736
			C285.912,143.301,286.066,132.959,286.066,121.944z"/>
		<path fill-rule="evenodd" clip-rule="evenodd" fill="#CCCCCC" d="M212.727,81.152c0,10.826,0.047,21.143-0.081,31.459
			c-0.01,0.933-1.002,2.42-1.808,2.637c-1.074,0.287-2.975-0.001-3.553-0.77c-7.118-9.457-14.14-18.99-20.99-28.643
			c-1.75-2.465-0.5-4.549,2.418-4.617C196.787,81.027,204.87,81.152,212.727,81.152z"/>
		<path fill-rule="evenodd" clip-rule="evenodd" fill="#CCCCCC" d="M285.99,81.158c7.943,0,16.041-0.119,24.132,0.062
			c3.016,0.066,4.075,2.195,2.353,4.621c-6.768,9.536-13.687,18.968-20.73,28.302c-0.68,0.901-2.732,1.362-3.923,1.079
			c-0.813-0.195-1.739-2.03-1.753-3.144C285.934,102.025,285.99,91.97,285.99,81.158z"/>
		<path fill-rule="evenodd" clip-rule="evenodd" fill="#CCCCCC" d="M285.277,177.838c0-3.773,0.112-7.552-0.041-11.318
			c-0.095-2.321,0.721-3.291,3.061-3.301c6.943-0.025,13.885-0.278,20.824-0.205c3.832,0.041,5.218,2.478,2.984,5.645
			c-6.503,9.223-13.243,18.279-20.047,27.283c-0.732,0.969-2.713,1.854-3.707,1.529c-1.036-0.34-2.112-2.134-2.243-3.389
			c-0.556-5.389-0.771-10.814-1.109-16.226C285.091,177.85,285.185,177.844,285.277,177.838z"/>
		<path fill-rule="evenodd" clip-rule="evenodd" fill="#CCCCCC" d="M212.711,163.047c0,11.084,0.173,21.429-0.105,31.761
			c-0.084,3.091-3.559,4.085-5.505,1.526c-7.088-9.316-13.948-18.811-20.724-28.359c-2.098-2.957-0.131-4.762,2.717-4.846
			C197.035,162.896,204.988,163.047,212.711,163.047z"/>
		<path fill-rule="evenodd" clip-rule="evenodd" fill="none" d="M249.307,199.842c-10.797-0.012-19.383-8.598-19.399-19.4
			c-0.014-10.582,8.824-19.516,19.353-19.562c10.734-0.048,19.637,8.924,19.611,19.769
			C268.848,191.359,260.188,199.854,249.307,199.842z"/>
		<path fill-rule="evenodd" clip-rule="evenodd" fill="none" d="M249.524,79.249c10.622,0.004,19.263,8.548,19.32,19.105
			c0.058,10.354-8.976,19.544-19.149,19.479c-10.844-0.068-19.757-8.773-19.779-19.316
			C229.896,87.797,238.598,79.244,249.524,79.249z"/>
		<path fill-rule="evenodd" clip-rule="evenodd" fill="none" d="M249.204,158.16c-10.63-0.018-18.499-7.924-18.387-18.471
			c0.112-10.707,8.21-18.77,18.758-18.68c10.703,0.092,18.469,8.324,18.403,19.51C267.916,150.623,259.878,158.178,249.204,158.16z"
			/>
	</g>
	<g id="WFA5wE.tif_13_">
		<g>
			<g>
				<path fill="none" d="M57.152,325.864c0-47.015,0-94.028,0-141.179c20.827,0,41.654,0,62.482,0
					c-0.114,0.064-0.223,0.168-0.344,0.188c-6.91,1.067-11.788,5.004-15.474,10.755c-2.458,3.835-2.469,13.349,0.093,17.163
					c0.403,0.602,0.75,1.35,0.809,2.056c0.511,6.237,0.969,12.479,1.408,18.722c1.637,23.197,3.257,46.396,4.891,69.594
					c0.18,2.547,0.408,5.09,0.632,7.848c1.011,0,1.852,0,2.692,0c23.131,0,46.263,0,69.394,0c0.527,0,1.104-0.134,1.569,0.035
					c0.59,0.216,1.333,0.553,1.59,1.053c1.399,2.725,2.709,5.498,3.975,8.287c2.869,6.324,5.7,12.665,8.537,19.003
					c2.836,6.338,5.691,12.667,8.479,19.025c2.379,5.423,4.64,10.897,7.027,16.315c0.725,1.644,1.7,3.177,2.563,4.764
					c13.318-4.986,26.536-9.936,39.883-14.932c-2.039-4.843-3.991-9.479-5.994-14.235c-7.637,2.619-15.072,5.17-22.497,7.716
					c-1.934-3.996-3.827-7.784-5.61-11.623c-2.757-5.94-5.444-11.912-8.15-17.876c-3.088-6.804-6.19-13.6-9.234-20.423
					c-2.037-4.564-4.021-9.156-5.943-13.771c-0.499-1.198-1.089-1.665-2.46-1.652c-19.373,0.181-38.746,0.293-58.119,0.414
					c-3.281,0.021-6.562,0.003-10.026,0.003c-0.303-4.111-0.596-8.083-0.908-12.327c16.871,0,33.558,0,50.285,0
					c0-6.164,0-12.066,0-18.203c-17.398,0-34.686,0-52.124,0c-0.739-13.152-1.467-26.084-2.193-39.003
					c0.971-0.202,1.737-0.384,2.511-0.521c5.528-0.971,9.846-4.138,12.696-8.629c6.63-10.446,2.511-22.662-8.815-28.006
					c-1.752-0.826-3.73-1.171-5.604-1.738c44.16,0,88.319,0,132.479,0c0,72.633,0,145.266,0,217.897c-39.283,0-78.564,0-117.848,0
					c0.438-0.121,0.868-0.302,1.313-0.354c15.518-1.808,29.274-7.834,41.228-17.77c5.921-4.922,11.128-10.618,14.908-17.455
					c0.498-0.9,1.36-1.627,1.721-2.562c0.282-0.73,0.244-1.728-0.011-2.484c-0.299-0.889-1.058-1.609-1.495-2.465
					c-3.556-6.946-7.08-13.908-10.624-20.86c-0.132-0.259-0.364-0.466-0.514-0.653c-0.735,2.952-1.245,5.894-2.22,8.671
					c-0.987,2.809-2.311,5.521-3.709,8.157c-2.217,4.181-4.914,7.976-8.261,11.432c-7.358,7.597-16.092,12.621-26.262,15.199
					c-15.113,3.83-29.418,1.531-42.812-6.246c-6.659-3.867-12.087-9.242-16.593-15.458c-4.518-6.231-6.826-13.48-8.32-20.888
					c-1.28-6.344-0.906-12.735,0.964-19.085c1.999-6.791,4.372-13.244,8.803-18.942c3.853-4.954,8.27-9.157,13.455-12.604
					c0.935-0.622,1.305-1.257,1.191-2.398c-0.33-3.343-0.53-6.698-0.8-10.048c-0.251-3.112-0.524-6.223-0.796-9.426
					c-5.757,2.113-10.647,5.334-15.318,8.82c-6.296,4.697-11.71,10.385-16.151,16.84c-4.744,6.895-8.232,14.486-10.312,22.623
					C58.249,318.306,57.815,322.114,57.152,325.864z"/>
				<path fill-rule="evenodd" clip-rule="evenodd" d="M125.171,184.686c1.874,0.567,3.853,0.912,5.604,1.738
					c11.326,5.344,15.445,17.56,8.815,28.006c-2.851,4.491-7.168,7.658-12.696,8.629c-0.773,0.137-1.54,0.318-2.511,0.521
					c0.727,12.919,1.454,25.851,2.193,39.003c17.438,0,34.726,0,52.124,0c0,6.137,0,12.039,0,18.203c-16.728,0-33.414,0-50.285,0
					c0.312,4.244,0.605,8.216,0.908,12.327c3.464,0,6.745,0.018,10.026-0.003c19.373-0.121,38.746-0.233,58.119-0.414
					c1.371-0.013,1.961,0.454,2.46,1.652c1.922,4.615,3.906,9.207,5.943,13.771c3.044,6.823,6.146,13.619,9.234,20.423
					c2.706,5.964,5.394,11.936,8.15,17.876c1.783,3.839,3.677,7.627,5.61,11.623c7.425-2.546,14.86-5.097,22.497-7.716
					c2.003,4.756,3.955,9.393,5.994,14.235c-13.347,4.996-26.564,9.945-39.883,14.932c-0.863-1.587-1.839-3.12-2.563-4.764
					c-2.388-5.418-4.648-10.893-7.027-16.315c-2.788-6.358-5.644-12.688-8.479-19.025c-2.837-6.338-5.668-12.679-8.537-19.003
					c-1.266-2.789-2.575-5.562-3.975-8.287c-0.257-0.5-1-0.837-1.59-1.053c-0.466-0.169-1.042-0.035-1.569-0.035
					c-23.131,0-46.263,0-69.394,0c-0.841,0-1.682,0-2.692,0c-0.224-2.758-0.452-5.301-0.632-7.848
					c-1.634-23.198-3.254-46.396-4.891-69.594c-0.439-6.242-0.897-12.484-1.408-18.722c-0.059-0.706-0.405-1.454-0.809-2.056
					c-2.562-3.814-2.551-13.328-0.093-17.163c3.686-5.751,8.563-9.688,15.474-10.755c0.121-0.02,0.229-0.123,0.344-0.188
					C121.48,184.686,123.326,184.686,125.171,184.686z"/>
				<path fill-rule="evenodd" clip-rule="evenodd" d="M57.152,325.864c0.663-3.75,1.097-7.559,2.036-11.237
					c2.079-8.137,5.567-15.729,10.312-22.623c4.441-6.455,9.855-12.143,16.151-16.84c4.671-3.486,9.562-6.707,15.318-8.82
					c0.271,3.203,0.545,6.313,0.796,9.426c0.27,3.35,0.47,6.705,0.8,10.048c0.113,1.142-0.257,1.776-1.191,2.398
					c-5.186,3.446-9.603,7.649-13.455,12.604c-4.431,5.698-6.804,12.151-8.803,18.942c-1.87,6.35-2.244,12.741-0.964,19.085
					c1.494,7.407,3.803,14.656,8.32,20.888c4.506,6.216,9.934,11.591,16.593,15.458c13.395,7.777,27.699,10.076,42.812,6.246
					c10.17-2.578,18.903-7.603,26.262-15.199c3.347-3.456,6.044-7.251,8.261-11.432c1.398-2.637,2.722-5.349,3.709-8.157
					c0.975-2.777,1.484-5.719,2.22-8.671c0.149,0.188,0.382,0.395,0.514,0.653c3.544,6.952,7.068,13.914,10.624,20.86
					c0.438,0.855,1.196,1.576,1.495,2.465c0.255,0.757,0.293,1.754,0.011,2.484c-0.36,0.936-1.223,1.662-1.721,2.562
					c-3.78,6.837-8.987,12.533-14.908,17.455c-11.953,9.936-25.71,15.962-41.228,17.77c-0.445,0.052-0.876,0.232-1.313,0.354
					c-5.009,0-10.018,0-15.027,0c-0.696-0.146-1.386-0.341-2.09-0.428c-14.022-1.744-26.645-6.949-37.826-15.543
					c-5.906-4.539-11.074-9.917-15.289-16.03c-4.786-6.941-8.367-14.567-10.383-22.8c-0.935-3.816-1.372-7.753-2.035-11.636
					C57.152,332.719,57.152,329.292,57.152,325.864z"/>
				<path fill-rule="evenodd" clip-rule="evenodd" fill="none" d="M57.152,336.146c0.663,3.883,1.101,7.819,2.035,11.636
					c2.016,8.232,5.597,15.858,10.383,22.8c4.215,6.113,9.383,11.491,15.289,16.03c11.182,8.594,23.804,13.799,37.826,15.543
					c0.704,0.087,1.394,0.282,2.09,0.428c-22.541,0-45.082,0-67.623,0C57.152,380.438,57.152,358.292,57.152,336.146z"/>
			</g>
		</g>
	</g>
	<rect x="-9.5" y="478.5" fill="#CCCCCC" stroke="#CCCCCC" stroke-miterlimit="10" width="584" height="37"/>
	<rect x="-9.5" y="405.5" fill="#CCCCCC" stroke="#CCCCCC" stroke-miterlimit="10" width="306" height="78"/>
	<polyline fill="none" stroke="#000000" stroke-width="20" stroke-miterlimit="10" points="233,415 288,415 288,479 	"/>
</g>
<g id="_x33_D_Ramp" display="none">
</g>
<g id="_x32_D_Ramp">
	<g>
		<g>
			<line fill="none" stroke="#000000" stroke-width="20" stroke-miterlimit="10" x1="417" y1="280" x2="340.759" y2="369.491"/>
			<g>
				<polygon points="334.773,342.255 345.565,363.85 368.6,371.073 317.53,396.757 				"/>
			</g>
		</g>
	</g>
</g>
</svg>
