<?xml version="1.0" encoding="utf-8"?>
<!-- Generator: Adobe Illustrator 16.0.0, SVG Export Plug-In . SVG Version: 6.00 Build 0)  -->
<!DOCTYPE svg PUBLIC "-//W3C//DTD SVG 1.1//EN" "http://www.w3.org/Graphics/SVG/1.1/DTD/svg11.dtd">
<svg version="1.1" xmlns="http://www.w3.org/2000/svg" xmlns:xlink="http://www.w3.org/1999/xlink" x="0px" y="0px" width="560px"
	 height="560px" viewBox="0 0 560 560" enable-background="new 0 0 560 560" xml:space="preserve">
<g id="_x32_D_NoRamp">
</g>
<g id="_x32_D_No_Ramp">
</g>
<g id="_x33_D_Ramp" display="none">
</g>
<g id="_x32_D_Ramp">
	<g>
		<path fill="none" d="M17,448.448c0-154.581,0-309.163,0-463.84c154.807,0,309.652,0,464.65,0c0,154.55,0,309.194,0,463.84
			C326.856,448.448,171.949,448.448,17,448.448z M232.474,309.467c0,15.85,0.021,31.699-0.008,47.549
			c-0.024,13.585-0.138,27.169-0.151,40.752c-0.008,7.654,1.379,9.011,8.86,9.016c5.132,0.001,10.264,0,15.397,0
			c8.931,0,9.923-0.938,9.907-9.779c-0.04-22.642-0.153-45.282-0.173-67.924c-0.028-35.773,0-71.547-0.006-107.322
			c-0.002-7.602-1.282-8.854-8.972-8.866c-5.132-0.007-10.264-0.001-15.396,0.007c-8.561,0.012-9.458,0.906-9.46,9.622
			C232.463,251.503,232.47,280.484,232.474,309.467z M280.442,139.623c0-15.395,0.092-30.789-0.028-46.184
			c-0.093-11.754-6.551-20.312-17.587-21.573c-8.787-1.005-17.837-0.896-26.657-0.077c-9.689,0.9-16.009,7.586-17.235,17.408
			c-0.799,6.394-0.593,12.929-0.609,19.402c-0.057,25.508-0.099,51.018,0.008,76.526c0.062,14.83,8.196,22.772,23.015,22.858
			c4.983,0.028,9.963,0.02,14.944,0.02c1.357,0,2.725,0.064,4.073-0.059c12.763-1.166,19.927-8.958,20.037-22.139
			C280.531,170.414,280.433,155.018,280.442,139.623z M212.896,122.264c-7.011,0-14.055-0.117-21.091,0.076
			c-1.916,0.053-4.629,0.496-5.458,1.758c-0.718,1.096,0.219,3.949,1.268,5.426c6.093,8.566,12.369,17.006,18.774,25.342
			c0.812,1.053,2.952,1.963,4.091,1.629c1.07-0.314,2.285-2.354,2.312-3.654C212.981,142.93,212.896,133.012,212.896,122.264z
			 M286.059,122.273c0,11.014-0.154,21.355,0.096,31.688c0.072,3.029,3.629,4.158,5.47,1.736
			c7.078-9.309,13.978-18.759,20.702-28.328c1.885-2.684,0.487-4.982-2.864-5.048C301.653,122.168,293.839,122.273,286.059,122.273z
			 M212.719,81.48c-7.856,0-15.939-0.125-24.014,0.066c-2.918,0.069-4.168,2.152-2.418,4.617
			c6.851,9.652,13.872,19.186,20.99,28.643c0.578,0.77,2.479,1.057,3.553,0.77c0.806-0.216,1.798-1.703,1.808-2.637
			C212.766,102.623,212.719,92.307,212.719,81.48z M285.982,81.486c0,10.812-0.057,20.868,0.078,30.922
			c0.014,1.113,0.939,2.947,1.753,3.143c1.19,0.284,3.243-0.177,3.923-1.078c7.044-9.334,13.963-18.766,20.73-28.303
			c1.723-2.426,0.663-4.554-2.353-4.621C302.023,81.367,293.926,81.486,285.982,81.486z M285.27,178.167
			c-0.093,0.005-0.187,0.011-0.278,0.019c0.339,5.411,0.554,10.836,1.109,16.226c0.131,1.255,1.207,3.049,2.243,3.388
			c0.994,0.325,2.975-0.56,3.707-1.529c6.804-9.003,13.544-18.06,20.047-27.282c2.233-3.167,0.848-5.604-2.984-5.646
			c-6.939-0.072-13.881,0.18-20.824,0.206c-2.34,0.009-3.155,0.979-3.061,3.3C285.382,170.615,285.27,174.393,285.27,178.167z
			 M212.703,163.376c-7.723,0-15.676-0.151-23.617,0.081c-2.848,0.084-4.814,1.89-2.717,4.846
			c6.775,9.549,13.636,19.043,20.724,28.359c1.946,2.559,5.421,1.565,5.505-1.525C212.876,184.805,212.703,174.46,212.703,163.376z"
			/>
		<path fill-rule="evenodd" clip-rule="evenodd" fill="#CCCCCC" d="M232.472,309.467c-0.002-28.982-0.009-57.964,0.002-86.946
			c0.002-8.716,0.899-9.61,9.46-9.622c5.132-0.008,10.264-0.014,15.396-0.007c7.689,0.013,8.97,1.265,8.972,8.866
			c0.006,35.775-0.022,71.549,0.006,107.322c0.02,22.642,0.133,45.282,0.173,67.924c0.016,8.841-0.977,9.779-9.907,9.779
			c-5.134,0-10.266,0.001-15.397,0c-7.481-0.005-8.868-1.361-8.86-9.016c0.014-13.583,0.127-27.167,0.151-40.752
			C232.495,341.166,232.474,325.316,232.472,309.467z"/>
		<path fill-rule="evenodd" clip-rule="evenodd" fill="#CCCCCC" d="M280.438,139.623c-0.005,15.395,0.094,30.791-0.035,46.184
			c-0.11,13.181-7.274,20.973-20.037,22.139c-1.349,0.123-2.716,0.059-4.073,0.059c-4.981,0-9.961,0.009-14.944-0.02
			c-14.818-0.086-22.952-8.028-23.015-22.858c-0.106-25.509-0.064-51.019-0.008-76.526c0.017-6.474-0.189-13.009,0.609-19.402
			c1.227-9.822,7.546-16.508,17.235-17.408c8.82-0.819,17.87-0.928,26.657,0.077c11.036,1.261,17.494,9.819,17.587,21.573
			C280.534,108.834,280.442,124.229,280.438,139.623z M249.299,200.171c10.882,0.012,19.541-8.482,19.564-19.194
			c0.025-10.845-8.877-19.816-19.611-19.77c-10.528,0.047-19.366,8.981-19.353,19.562
			C229.916,191.572,238.502,200.159,249.299,200.171z M249.517,79.578c-10.927-0.005-19.629,8.547-19.608,19.268
			c0.022,10.543,8.936,19.248,19.779,19.316c10.174,0.064,19.207-9.125,19.149-19.479C268.779,88.125,260.139,79.582,249.517,79.578
			z M249.196,158.489c10.674,0.018,18.712-7.537,18.774-17.641c0.065-11.186-7.7-19.419-18.403-19.511
			c-10.548-0.09-18.646,7.973-18.758,18.68C230.697,150.564,238.566,158.471,249.196,158.489z"/>
		<path fill-rule="evenodd" clip-rule="evenodd" fill="#CCCCCC" d="M212.896,122.264c0,10.748,0.086,20.666-0.104,30.576
			c-0.026,1.301-1.241,3.34-2.312,3.654c-1.139,0.334-3.279-0.576-4.091-1.629c-6.405-8.336-12.682-16.775-18.774-25.342
			c-1.049-1.477-1.985-4.33-1.268-5.426c0.829-1.262,3.542-1.705,5.458-1.758C198.841,122.146,205.885,122.264,212.896,122.264z"/>
		<path fill-rule="evenodd" clip-rule="evenodd" fill="#CCCCCC" d="M286.059,122.273c7.78,0,15.595-0.105,23.403,0.048
			c3.352,0.065,4.749,2.364,2.864,5.048c-6.725,9.569-13.624,19.02-20.702,28.328c-1.841,2.422-5.397,1.293-5.47-1.736
			C285.904,143.629,286.059,133.287,286.059,122.273z"/>
		<path fill-rule="evenodd" clip-rule="evenodd" fill="#CCCCCC" d="M212.719,81.48c0,10.826,0.047,21.143-0.081,31.459
			c-0.01,0.934-1.002,2.421-1.808,2.637c-1.074,0.287-2.975,0-3.553-0.77c-7.118-9.457-14.14-18.99-20.99-28.643
			c-1.75-2.465-0.5-4.548,2.418-4.617C196.779,81.355,204.862,81.48,212.719,81.48z"/>
		<path fill-rule="evenodd" clip-rule="evenodd" fill="#CCCCCC" d="M285.982,81.486c7.943,0,16.041-0.119,24.132,0.062
			c3.016,0.067,4.075,2.195,2.353,4.621c-6.768,9.537-13.687,18.969-20.73,28.303c-0.68,0.901-2.732,1.362-3.923,1.078
			c-0.813-0.195-1.739-2.029-1.753-3.143C285.926,102.354,285.982,92.299,285.982,81.486z"/>
		<path fill-rule="evenodd" clip-rule="evenodd" fill="#CCCCCC" d="M285.27,178.167c0-3.774,0.112-7.552-0.041-11.319
			c-0.095-2.32,0.721-3.291,3.061-3.3c6.943-0.026,13.885-0.278,20.824-0.206c3.832,0.041,5.218,2.479,2.984,5.646
			c-6.503,9.223-13.243,18.279-20.047,27.282c-0.732,0.97-2.713,1.854-3.707,1.529c-1.036-0.339-2.112-2.133-2.243-3.388
			c-0.556-5.39-0.771-10.814-1.109-16.226C285.083,178.178,285.177,178.172,285.27,178.167z"/>
		<path fill-rule="evenodd" clip-rule="evenodd" fill="#CCCCCC" d="M212.703,163.376c0,11.084,0.173,21.429-0.105,31.761
			c-0.084,3.091-3.559,4.084-5.505,1.525c-7.088-9.316-13.948-18.811-20.724-28.359c-2.098-2.956-0.131-4.762,2.717-4.846
			C197.027,163.225,204.98,163.376,212.703,163.376z"/>
		<path fill-rule="evenodd" clip-rule="evenodd" fill="none" d="M249.299,200.171c-10.797-0.012-19.383-8.599-19.399-19.401
			c-0.014-10.581,8.824-19.516,19.353-19.562c10.734-0.047,19.637,8.925,19.611,19.77
			C268.84,191.688,260.181,200.183,249.299,200.171z"/>
		<path fill-rule="evenodd" clip-rule="evenodd" fill="none" d="M249.517,79.578c10.622,0.004,19.263,8.547,19.32,19.105
			c0.058,10.354-8.976,19.543-19.149,19.479c-10.844-0.068-19.757-8.773-19.779-19.316C229.888,88.125,238.59,79.573,249.517,79.578
			z"/>
		<path fill-rule="evenodd" clip-rule="evenodd" fill="none" d="M249.196,158.489c-10.63-0.019-18.499-7.925-18.387-18.472
			c0.112-10.707,8.21-18.77,18.758-18.68c10.703,0.092,18.469,8.325,18.403,19.511C267.908,150.952,259.87,158.507,249.196,158.489z
			"/>
	</g>
	<g id="WFA5wE.tif_14_">
		<g>
			<g>
				<path fill="none" d="M57.145,326.193c0-47.014,0-94.028,0-141.179c20.827,0,41.654,0,62.482,0
					c-0.114,0.064-0.223,0.168-0.344,0.188c-6.91,1.067-11.788,5.004-15.474,10.755c-2.458,3.835-2.469,13.349,0.093,17.163
					c0.402,0.601,0.75,1.35,0.809,2.056c0.511,6.237,0.969,12.479,1.408,18.722c1.637,23.197,3.256,46.396,4.891,69.593
					c0.18,2.547,0.408,5.091,0.632,7.848c1.011,0,1.852,0,2.692,0c23.131,0,46.262,0,69.393,0c0.527,0,1.104-0.133,1.57,0.036
					c0.59,0.216,1.333,0.553,1.59,1.053c1.398,2.725,2.709,5.497,3.975,8.287c2.869,6.324,5.699,12.665,8.537,19.003
					c2.836,6.338,5.691,12.667,8.479,19.026c2.378,5.422,4.639,10.896,7.026,16.314c0.725,1.644,1.701,3.177,2.563,4.764
					c13.318-4.986,26.537-9.936,39.883-14.932c-2.038-4.843-3.99-9.479-5.993-14.235c-7.637,2.619-15.072,5.17-22.498,7.716
					c-1.934-3.995-3.826-7.784-5.609-11.623c-2.758-5.94-5.444-11.913-8.15-17.876c-3.088-6.804-6.191-13.6-9.234-20.423
					c-2.037-4.565-4.022-9.156-5.943-13.771c-0.5-1.198-1.089-1.665-2.461-1.652c-19.372,0.181-38.746,0.293-58.119,0.414
					c-3.281,0.021-6.562,0.003-10.025,0.003c-0.303-4.111-0.596-8.083-0.908-12.327c16.871,0,33.558,0,50.285,0
					c0-6.164,0-12.067,0-18.203c-17.398,0-34.686,0-52.124,0c-0.739-13.153-1.467-26.083-2.193-39.003
					c0.971-0.203,1.737-0.385,2.511-0.521c5.528-0.972,9.846-4.138,12.695-8.629c6.631-10.446,2.512-22.662-8.814-28.006
					c-1.752-0.826-3.73-1.171-5.604-1.738c44.159,0,88.319,0,132.479,0c0,72.633,0,145.265,0,217.897c-39.282,0-78.563,0-117.847,0
					c0.438-0.121,0.867-0.302,1.312-0.354c15.518-1.808,29.275-7.834,41.229-17.77c5.92-4.921,11.127-10.618,14.908-17.455
					c0.497-0.899,1.36-1.627,1.721-2.562c0.281-0.73,0.244-1.728-0.012-2.484c-0.299-0.888-1.057-1.609-1.495-2.465
					c-3.555-6.946-7.079-13.908-10.624-20.861c-0.131-0.258-0.363-0.465-0.514-0.652c-0.734,2.952-1.244,5.894-2.219,8.671
					c-0.987,2.809-2.311,5.521-3.709,8.157c-2.217,4.181-4.914,7.976-8.262,11.432c-7.357,7.597-16.091,12.621-26.262,15.199
					c-15.113,3.83-29.417,1.531-42.812-6.246c-6.659-3.867-12.087-9.242-16.593-15.458c-4.518-6.231-6.826-13.481-8.32-20.888
					c-1.28-6.344-0.906-12.736,0.963-19.085c2-6.791,4.373-13.244,8.804-18.942c3.853-4.954,8.27-9.158,13.454-12.604
					c0.936-0.621,1.305-1.258,1.192-2.398c-0.331-3.343-0.53-6.698-0.8-10.048c-0.251-3.112-0.524-6.223-0.796-9.426
					c-5.757,2.114-10.647,5.334-15.318,8.819c-6.296,4.698-11.71,10.387-16.151,16.841c-4.744,6.895-8.232,14.486-10.312,22.622
					C58.24,318.635,57.808,322.443,57.145,326.193z"/>
				<path fill-rule="evenodd" clip-rule="evenodd" d="M125.163,185.015c1.874,0.567,3.853,0.912,5.604,1.738
					c11.326,5.344,15.445,17.56,8.814,28.006c-2.85,4.491-7.167,7.657-12.695,8.629c-0.773,0.136-1.54,0.317-2.511,0.521
					c0.727,12.92,1.454,25.85,2.193,39.003c17.438,0,34.726,0,52.124,0c0,6.136,0,12.039,0,18.203c-16.728,0-33.414,0-50.285,0
					c0.312,4.244,0.605,8.216,0.908,12.327c3.463,0,6.744,0.018,10.025-0.003c19.373-0.121,38.747-0.233,58.119-0.414
					c1.372-0.013,1.961,0.454,2.461,1.652c1.921,4.615,3.906,9.206,5.943,13.771c3.043,6.823,6.146,13.619,9.234,20.423
					c2.706,5.963,5.393,11.936,8.15,17.876c1.783,3.839,3.676,7.628,5.609,11.623c7.426-2.546,14.861-5.097,22.498-7.716
					c2.003,4.757,3.955,9.393,5.993,14.235c-13.346,4.996-26.564,9.945-39.883,14.932c-0.862-1.587-1.839-3.12-2.563-4.764
					c-2.388-5.418-4.648-10.893-7.026-16.314c-2.788-6.359-5.644-12.688-8.479-19.026c-2.838-6.338-5.668-12.679-8.537-19.003
					c-1.266-2.79-2.576-5.562-3.975-8.287c-0.257-0.5-1-0.837-1.59-1.053c-0.467-0.169-1.043-0.036-1.57-0.036
					c-23.131,0-46.262,0-69.393,0c-0.841,0-1.682,0-2.692,0c-0.224-2.757-0.452-5.301-0.632-7.848
					c-1.635-23.197-3.254-46.396-4.891-69.593c-0.439-6.243-0.897-12.484-1.408-18.722c-0.059-0.706-0.406-1.455-0.809-2.056
					c-2.562-3.814-2.551-13.328-0.093-17.163c3.686-5.751,8.563-9.688,15.474-10.755c0.121-0.02,0.229-0.123,0.344-0.188
					C121.473,185.015,123.318,185.015,125.163,185.015z"/>
				<path fill-rule="evenodd" clip-rule="evenodd" d="M57.145,326.193c0.663-3.75,1.096-7.559,2.036-11.238
					c2.079-8.136,5.567-15.728,10.312-22.622c4.441-6.454,9.855-12.143,16.151-16.841c4.671-3.485,9.562-6.705,15.318-8.819
					c0.271,3.203,0.545,6.313,0.796,9.426c0.27,3.35,0.469,6.705,0.8,10.048c0.112,1.141-0.257,1.777-1.192,2.398
					c-5.185,3.445-9.602,7.649-13.454,12.604c-4.431,5.698-6.804,12.151-8.804,18.942c-1.869,6.349-2.243,12.741-0.963,19.085
					c1.494,7.406,3.803,14.656,8.32,20.888c4.506,6.216,9.934,11.591,16.593,15.458c13.395,7.777,27.698,10.076,42.812,6.246
					c10.171-2.578,18.904-7.603,26.262-15.199c3.348-3.456,6.045-7.251,8.262-11.432c1.398-2.637,2.722-5.349,3.709-8.157
					c0.975-2.777,1.484-5.719,2.219-8.671c0.15,0.188,0.383,0.395,0.514,0.652c3.545,6.953,7.069,13.915,10.624,20.861
					c0.438,0.855,1.196,1.577,1.495,2.465c0.256,0.757,0.293,1.754,0.012,2.484c-0.36,0.936-1.224,1.663-1.721,2.562
					c-3.781,6.837-8.988,12.534-14.908,17.455c-11.953,9.936-25.711,15.962-41.229,17.77c-0.445,0.052-0.875,0.232-1.312,0.354
					c-5.009,0-10.018,0-15.027,0c-0.696-0.146-1.387-0.341-2.09-0.428c-14.022-1.744-26.645-6.949-37.826-15.543
					c-5.906-4.539-11.074-9.917-15.289-16.03c-4.786-6.94-8.367-14.567-10.383-22.8c-0.934-3.816-1.372-7.754-2.035-11.637
					C57.145,333.048,57.145,329.621,57.145,326.193z"/>
				<path fill-rule="evenodd" clip-rule="evenodd" fill="none" d="M57.145,336.475c0.663,3.883,1.102,7.82,2.035,11.637
					c2.016,8.232,5.597,15.859,10.383,22.8c4.215,6.113,9.383,11.491,15.289,16.03c11.182,8.594,23.804,13.799,37.826,15.543
					c0.703,0.087,1.394,0.282,2.09,0.428c-22.541,0-45.082,0-67.623,0C57.145,380.767,57.145,358.621,57.145,336.475z"/>
			</g>
		</g>
	</g>
	<polyline stroke="#FFFFFF" stroke-miterlimit="10" points="293.5,406 293.5,484.335 495.165,485.117 	"/>
	<rect x="-10.5" y="478.5" fill="#CCCCCC" stroke="#CCCCCC" stroke-miterlimit="10" width="585" height="37"/>
	<rect x="-10.5" y="405.5" fill="#CCCCCC" stroke="#CCCCCC" stroke-miterlimit="10" width="305" height="78"/>
	<g>
		<path fill="none" d="M414.135,414.959"/>
	</g>
	<g>
		<path fill="none" d="M475,293.567"/>
	</g>
	<g>
		<g>
			<line fill="none" stroke="#000000" stroke-width="20" stroke-miterlimit="10" x1="481.65" y1="280" x2="435.425" y2="378.879"/>
			<g>
				<polygon points="422.434,354.203 438.564,372.164 462.689,373.022 420.256,411.326 				"/>
			</g>
		</g>
	</g>
</g>
</svg>
